<svg width="35" height="31" viewBox="0 0 35 31" fill="none" xmlns="http://www.w3.org/2000/svg">
<path d="M4.61767 7.28288C2.91789 8.79685 1.96289 10.8503 1.96289 12.9914C1.96289 15.1325 2.91789 17.1859 4.61767 18.6999L17.4359 30.1169L30.2541 18.6999C31.9539 17.1859 32.9089 15.1325 32.9089 12.9914C32.9089 10.8503 31.9539 8.79685 30.2541 7.28288C28.5543 5.76892 26.2489 4.91846 23.845 4.91846C21.4411 4.91846 19.1357 5.76892 17.4359 7.28288C15.7361 5.7689 13.4307 4.91846 11.0268 4.91846C8.62288 4.91846 6.31748 5.7689 4.61767 7.28288Z" fill="#2557C3"/>
<path d="M2.65037 14.8834C2.5273 14.8834 2.40996 14.9034 2.29004 14.9144C2.49637 15.6628 2.8219 16.381 3.25679 17.0471C3.50765 17.193 3.67726 17.4196 3.73137 17.6975C4.01391 18.0487 4.32763 18.3792 4.66955 18.6857L6.0208 19.8888V17.8733C6.0208 17.3102 6.51567 16.8715 7.15014 16.8715C7.78461 16.8715 8.27057 17.3102 8.27069 17.8733V21.8926L10.1712 23.5859C10.2816 23.4927 10.3693 23.3806 10.4294 23.2564C10.4894 23.1322 10.5205 22.9984 10.5206 22.8632V17.8733C10.5205 16.2313 9.00022 14.8833 7.15014 14.8833C6.28573 14.8833 5.49911 15.1851 4.89806 15.6665C4.29891 15.1846 3.51523 14.8834 2.65037 14.8834ZM16.7034 14.8834C15.4051 14.8834 14.3713 15.5697 13.7394 16.397C13.1076 17.2245 12.7705 18.2568 12.7705 19.3832C12.7705 20.5095 13.1075 21.542 13.7394 22.3694C14.3713 23.1967 15.4051 23.883 16.7034 23.883C18.0016 23.883 19.0442 23.1967 19.6761 22.3694C20.3079 21.542 20.645 20.5095 20.645 19.3832C20.645 18.2568 20.3079 17.2245 19.6761 16.397C19.0442 15.5697 18.0016 14.8834 16.7034 14.8834ZM26.2741 14.8834C24.4241 14.8834 22.8949 16.2316 22.8949 17.8735V22.8635C22.8949 23.1283 23.0135 23.3821 23.2245 23.5694C23.4355 23.7566 23.7215 23.8618 24.0199 23.8618C24.3182 23.8618 24.6043 23.7566 24.8152 23.5694C25.0262 23.3821 25.1448 23.1283 25.1448 22.8635V17.8735C25.1448 17.3104 25.6397 16.8716 26.2741 16.8716C26.9086 16.8716 27.3925 17.3104 27.3925 17.8735V21.2815L29.6446 19.2758V17.8735C29.6446 17.3104 30.1394 16.8716 30.7739 16.8716C31.1145 16.8716 31.4038 17.0032 31.6066 17.2075C32.01 16.6267 32.3289 16.0026 32.5558 15.3502C32.0364 15.0593 31.4285 14.8834 30.7739 14.8834C29.9095 14.8834 29.1229 15.1852 28.5218 15.6666C27.9227 15.1847 27.139 14.8834 26.2741 14.8834ZM16.7034 17.0083C16.8543 17.0083 17.1302 17.0944 17.4482 17.5102C17.7662 17.9267 18.0194 18.6115 18.0194 19.3832C18.0194 20.1548 17.7662 20.8398 17.4482 21.2561C17.1302 21.6725 16.8543 21.7581 16.7034 21.7581C16.5524 21.7581 16.2854 21.6721 15.9673 21.2561C15.6493 20.8398 15.396 20.1548 15.396 19.3832C15.396 18.6115 15.6492 17.9267 15.9673 17.5102C16.2853 17.0939 16.5524 17.0083 16.7034 17.0083Z" fill="#2557C3"/>
<path d="M27.0047 14.5195C25.1546 14.5195 23.6263 15.8681 23.6263 17.51V22.4987C23.623 22.6317 23.6496 22.7639 23.7046 22.8876C23.7596 23.0113 23.8419 23.124 23.9466 23.2191C24.0514 23.3142 24.1765 23.3898 24.3147 23.4413C24.4528 23.4929 24.6011 23.5194 24.751 23.5194C24.9008 23.5194 25.0492 23.4929 25.1873 23.4413C25.3254 23.3898 25.4505 23.3142 25.5553 23.2191C25.6601 23.124 25.7424 23.0113 25.7974 22.8876C25.8524 22.7639 25.879 22.6317 25.8756 22.4987V17.51C25.8756 16.9469 26.3702 16.5081 27.0047 16.5081C27.6392 16.5081 28.125 16.9469 28.125 17.51V22.4987C28.125 22.7637 28.2436 23.0178 28.4547 23.2051C28.6658 23.3925 28.9522 23.4979 29.2508 23.4979C29.5493 23.4979 29.8357 23.3925 30.0468 23.2051C30.2579 23.0178 30.3765 22.7637 30.3765 22.4987V17.51C30.3765 16.9469 30.8711 16.5081 31.5056 16.5081C32.1401 16.5081 32.6259 16.9469 32.6259 17.51V22.4987C32.6225 22.6317 32.6491 22.7639 32.7041 22.8876C32.7592 23.0113 32.8415 23.124 32.9462 23.2191C33.051 23.3142 33.1761 23.3898 33.3143 23.4413C33.4524 23.4929 33.6007 23.5194 33.7506 23.5194C33.9004 23.5194 34.0488 23.4929 34.1869 23.4413C34.325 23.3898 34.4501 23.3142 34.5549 23.2191C34.6597 23.124 34.7419 23.0113 34.797 22.8876C34.852 22.7639 34.8786 22.6317 34.8752 22.4987V17.51C34.8752 15.8681 33.3557 14.5195 31.5056 14.5195C30.6412 14.5195 29.8551 14.8219 29.254 15.3032C28.6549 14.8214 27.8696 14.5195 27.0047 14.5195ZM3.38066 14.5195C1.53057 14.5195 0.00223595 15.8681 0.00223595 17.51V22.4987C-0.00112515 22.6317 0.025501 22.7639 0.0805105 22.8876C0.13552 23.0113 0.217833 23.124 0.3226 23.2191C0.427368 23.3142 0.552461 23.3898 0.690584 23.4413C0.828708 23.4929 0.977063 23.5194 1.12692 23.5194C1.27677 23.5194 1.42513 23.4929 1.56325 23.4413C1.70137 23.3898 1.82647 23.3142 1.93123 23.2191C2.036 23.124 2.11831 23.0113 2.17332 22.8876C2.22833 22.7639 2.25493 22.6317 2.25157 22.4987V17.51C2.25157 16.9469 2.7462 16.5081 3.38066 16.5081C4.01511 16.5081 4.5009 16.9469 4.5009 17.51V22.4987C4.5009 22.7637 4.61951 23.0178 4.83063 23.2051C5.04176 23.3925 5.32811 23.4979 5.62668 23.4979C5.92525 23.4979 6.2116 23.3925 6.42272 23.2051C6.63385 23.0178 6.75246 22.7637 6.75246 22.4987V17.51C6.75246 16.9469 7.24707 16.5081 7.88152 16.5081C8.51598 16.5081 9.00178 16.9469 9.00183 17.51V22.4987C8.99846 22.6317 9.02506 22.7639 9.08007 22.8876C9.13508 23.0113 9.21739 23.124 9.32216 23.2191C9.42692 23.3142 9.55205 23.3898 9.69017 23.4413C9.8283 23.4929 9.97662 23.5194 10.1265 23.5194C10.2763 23.5194 10.4247 23.4929 10.5628 23.4413C10.7009 23.3898 10.8261 23.3142 10.9308 23.2191C11.0356 23.124 11.1179 23.0113 11.1729 22.8876C11.2279 22.7639 11.2545 22.6317 11.2512 22.4987V17.51C11.2511 15.8681 9.73161 14.5195 7.88152 14.5195C7.01713 14.5195 6.23102 14.8219 5.62999 15.3032C5.03082 14.8214 4.24552 14.5195 3.38066 14.5195ZM17.4339 14.5195C16.1355 14.5195 15.1018 15.2051 14.47 16.0325C13.8382 16.8599 13.5014 17.8931 13.5014 19.0194C13.5014 20.1458 13.8381 21.1788 14.47 22.0062C15.1018 22.8336 16.1355 23.5192 17.4339 23.5192C18.7322 23.5192 19.7757 22.8336 20.4075 22.0062C21.0393 21.1788 21.376 20.1458 21.376 19.0194C21.376 17.8931 21.0393 16.8599 20.4075 16.0325C19.7757 15.2051 18.7322 14.5195 17.4339 14.5195ZM17.4339 16.644C17.5848 16.644 17.8617 16.7295 18.1797 17.1458C18.4978 17.5622 18.7512 18.2478 18.7512 19.0194C18.7512 19.7911 18.4978 20.4766 18.1797 20.8931C17.8617 21.3095 17.5848 21.3948 17.4339 21.3948C17.2829 21.3948 17.0159 21.3094 16.6978 20.8931C16.3797 20.4766 16.1263 19.7911 16.1263 19.0194C16.1263 18.2478 16.3797 17.5622 16.6978 17.1458C17.0158 16.7294 17.2829 16.644 17.4339 16.644Z" fill="#FFFEFE"/>
<path d="M31.4913 6.12944e-05C31.4174 0.00108576 31.3445 0.0150022 31.2767 0.0410748C31.2089 0.0671474 31.1475 0.10488 31.0961 0.152031C31.0447 0.199182 31.0042 0.254789 30.977 0.315841C30.9498 0.376892 30.9364 0.442191 30.9376 0.507847V0.99415C30.9365 1.0604 30.9503 1.12626 30.9781 1.18774C31.0059 1.24922 31.0471 1.3051 31.0995 1.35229C31.1518 1.39947 31.2142 1.43694 31.2829 1.46251C31.3517 1.48808 31.4255 1.50133 31.5 1.50133C31.5746 1.50133 31.6484 1.48808 31.7171 1.46251C31.7859 1.43694 31.8483 1.39947 31.9006 1.35229C31.9529 1.3051 31.9942 1.24922 32.022 1.18774C32.0498 1.12626 32.0636 1.0604 32.0625 0.99415V0.507847C32.0637 0.440876 32.0497 0.37438 32.0214 0.312301C31.9931 0.250221 31.9511 0.193777 31.8978 0.146416C31.8445 0.0990547 31.7811 0.0617052 31.7112 0.0365584C31.6414 0.0114116 31.5666 -0.000986636 31.4913 6.12944e-05ZM31.4913 2.49993C31.4174 2.50096 31.3445 2.51487 31.2767 2.54094C31.2089 2.56702 31.1475 2.60475 31.0961 2.6519C31.0447 2.69905 31.0042 2.75466 30.977 2.81571C30.9498 2.87676 30.9364 2.94206 30.9376 3.00772V3.49402C30.9365 3.56027 30.9503 3.62613 30.9781 3.68761C31.0059 3.74909 31.0471 3.80497 31.0995 3.85216C31.1518 3.89934 31.2142 3.93681 31.2829 3.96238C31.3517 3.98795 31.4255 4.0012 31.5 4.0012C31.5746 4.0012 31.6484 3.98795 31.7171 3.96238C31.7859 3.93681 31.8483 3.89934 31.9006 3.85216C31.9529 3.80497 31.9942 3.74909 32.022 3.68761C32.0498 3.62613 32.0636 3.56027 32.0625 3.49402V3.00772C32.0637 2.94075 32.0497 2.87425 32.0214 2.81217C31.9931 2.75009 31.9511 2.69365 31.8978 2.64629C31.8445 2.59892 31.7811 2.56158 31.7112 2.53643C31.6414 2.51128 31.5666 2.49888 31.4913 2.49993Z" fill="#2557C3"/>
<path d="M33.7509 1.99271C33.7498 1.92705 33.7341 1.86224 33.7048 1.80197C33.6754 1.74171 33.633 1.68717 33.5799 1.64147C33.5269 1.59576 33.4643 1.5598 33.3957 1.53562C33.327 1.51144 33.2535 1.49952 33.1796 1.50055H32.6326C32.558 1.49961 32.4839 1.51185 32.4148 1.53656C32.3456 1.56126 32.2827 1.59794 32.2297 1.64446C32.1766 1.69098 32.1344 1.74641 32.1057 1.80754C32.0769 1.86867 32.062 1.93426 32.062 2.00052C32.062 2.06678 32.0769 2.13238 32.1057 2.19351C32.1344 2.25463 32.1766 2.31007 32.2297 2.35658C32.2827 2.4031 32.3456 2.43978 32.4148 2.46449C32.4839 2.48919 32.558 2.50143 32.6326 2.5005H33.1796C33.255 2.50154 33.3298 2.48912 33.3996 2.46398C33.4695 2.43883 33.533 2.40146 33.5863 2.3541C33.6395 2.30674 33.6816 2.25034 33.7098 2.18826C33.7381 2.12618 33.7521 2.05968 33.7509 1.99271ZM30.9386 1.99271C30.9374 1.92705 30.9217 1.86224 30.8924 1.80197C30.8631 1.74171 30.8206 1.68717 30.7676 1.64147C30.7145 1.59576 30.652 1.5598 30.5833 1.53562C30.5146 1.51144 30.4412 1.49952 30.3673 1.50055H29.8202C29.7457 1.49961 29.6716 1.51185 29.6024 1.53656C29.5332 1.56126 29.4704 1.59794 29.4173 1.64446C29.3642 1.69098 29.3221 1.74641 29.2933 1.80754C29.2645 1.86867 29.2496 1.93426 29.2496 2.00052C29.2496 2.06678 29.2645 2.13238 29.2933 2.19351C29.3221 2.25463 29.3642 2.31007 29.4173 2.35658C29.4704 2.4031 29.5332 2.43978 29.6024 2.46449C29.6716 2.48919 29.7457 2.50143 29.8202 2.5005H30.3673C30.4426 2.50154 30.5174 2.48912 30.5873 2.46398C30.6571 2.43883 30.7206 2.40146 30.7739 2.3541C30.8272 2.30674 30.8692 2.25034 30.8975 2.18826C30.9258 2.12618 30.9397 2.05968 30.9386 1.99271Z" fill="#2557C3"/>
<path d="M34.3105 5.51903C34.3105 5.58469 34.296 5.64971 34.2677 5.71038C34.2394 5.77104 34.198 5.82611 34.1458 5.87254C34.0935 5.91897 34.0315 5.95583 33.9633 5.98096C33.895 6.00609 33.8219 6.01902 33.748 6.01902C33.6742 6.01902 33.601 6.00609 33.5328 5.98096C33.4645 5.95583 33.4025 5.91897 33.3503 5.87254C33.2981 5.82611 33.2566 5.77104 33.2284 5.71038C33.2001 5.64971 33.1855 5.58469 33.1855 5.51903C33.1855 5.38643 33.2448 5.25928 33.3503 5.16552C33.4558 5.07176 33.5988 5.01904 33.748 5.01904C33.8972 5.01904 34.0403 5.07176 34.1458 5.16552C34.2512 5.25928 34.3105 5.38643 34.3105 5.51903Z" fill="#2557C3"/>
<path d="M2.2601 1.26471C2.18624 1.26573 2.11327 1.27968 2.04547 1.30575C1.97767 1.33182 1.91631 1.36951 1.86489 1.41666C1.81348 1.46381 1.77304 1.5195 1.74583 1.58056C1.71863 1.64161 1.70513 1.70683 1.70628 1.77248V2.25886C1.70523 2.32511 1.719 2.39089 1.74679 2.45237C1.77459 2.51385 1.81585 2.56981 1.86819 2.61699C1.92052 2.66417 1.98288 2.70164 2.05165 2.72721C2.12042 2.75278 2.19421 2.76595 2.26876 2.76595C2.3433 2.76595 2.4171 2.75278 2.48586 2.72721C2.55463 2.70164 2.61713 2.66417 2.66946 2.61699C2.7218 2.56981 2.76292 2.51385 2.79072 2.45237C2.81851 2.39089 2.83228 2.32511 2.83123 2.25886V1.77248C2.8324 1.70551 2.81846 1.63901 2.79017 1.57694C2.76188 1.51486 2.71986 1.45846 2.66658 1.4111C2.6133 1.36374 2.54993 1.32638 2.48009 1.30123C2.41026 1.27608 2.33545 1.26366 2.2601 1.26471ZM2.2601 3.76458C2.18624 3.7656 2.11327 3.77955 2.04547 3.80562C1.97767 3.83169 1.91631 3.86938 1.86489 3.91653C1.81348 3.96368 1.77304 4.01937 1.74583 4.08043C1.71863 4.14148 1.70513 4.2067 1.70628 4.27235L1.70628 4.75873C1.70523 4.82498 1.719 4.89076 1.74679 4.95224C1.77459 5.01372 1.81585 5.06968 1.86819 5.11686C1.92052 5.16404 1.98288 5.20151 2.05165 5.22708C2.12042 5.25265 2.19421 5.26582 2.26876 5.26582C2.3433 5.26582 2.4171 5.25265 2.48586 5.22708C2.55463 5.20151 2.61713 5.16404 2.66946 5.11686C2.7218 5.06968 2.76292 5.01372 2.79072 4.95224C2.81851 4.89076 2.83228 4.82498 2.83123 4.75873V4.27235C2.8324 4.20538 2.81846 4.13888 2.79017 4.07681C2.76188 4.01473 2.71986 3.95833 2.66658 3.91097C2.6133 3.86361 2.54993 3.82625 2.48009 3.8011C2.41026 3.77595 2.33545 3.76353 2.2601 3.76458ZM4.51946 3.2575C4.51831 3.19185 4.50265 3.12703 4.47332 3.06677C4.44399 3.0065 4.40154 2.95196 4.3485 2.90626C4.29545 2.86056 4.23289 2.82459 4.16421 2.80041C4.09553 2.77623 4.02207 2.76432 3.9482 2.76534H3.40111C3.32658 2.7644 3.25249 2.77664 3.18332 2.80135C3.11415 2.82606 3.05129 2.86273 2.99821 2.90925C2.94513 2.95577 2.90298 3.01121 2.87421 3.07233C2.84544 3.13346 2.83054 3.19906 2.83054 3.26532C2.83054 3.33157 2.84544 3.39717 2.87421 3.4583C2.90298 3.51942 2.94513 3.57486 2.99821 3.62138C3.05129 3.6679 3.11415 3.70457 3.18332 3.72928C3.25249 3.75399 3.32658 3.76623 3.40111 3.76529H3.9482C4.02355 3.76634 4.09835 3.75392 4.16819 3.72877C4.23803 3.70362 4.30153 3.66625 4.35481 3.61889C4.40809 3.57153 4.45011 3.51513 4.4784 3.45305C4.50669 3.39097 4.52064 3.32447 4.51946 3.2575ZM1.70711 3.2575C1.70596 3.19185 1.6903 3.12703 1.66097 3.06677C1.63164 3.0065 1.58919 2.95196 1.53614 2.90626C1.4831 2.86056 1.42054 2.82459 1.35186 2.80041C1.28317 2.77623 1.20971 2.76432 1.13585 2.76534H0.588759C0.514225 2.7644 0.440132 2.77664 0.370966 2.80135C0.3018 2.82606 0.238936 2.86273 0.185856 2.90925C0.132776 2.95577 0.0906234 3.01121 0.0618543 3.07233C0.0330852 3.13346 0.0181856 3.19906 0.0181856 3.26532C0.0181856 3.33157 0.0330852 3.39717 0.0618543 3.4583C0.0906234 3.51942 0.132776 3.57486 0.185856 3.62138C0.238936 3.6679 0.3018 3.70457 0.370966 3.72928C0.440132 3.75399 0.514225 3.76623 0.588759 3.76529H1.13585C1.21119 3.76634 1.286 3.75392 1.35584 3.72877C1.42568 3.70362 1.48918 3.66625 1.54246 3.61889C1.59574 3.57153 1.63776 3.51513 1.66605 3.45305C1.69434 3.39097 1.70829 3.32447 1.70711 3.2575Z" fill="#2557C3"/>
<path d="M1.12496 7.51681C1.12495 7.64941 1.06569 7.77655 0.960207 7.87032C0.854722 7.96408 0.711655 8.01679 0.562478 8.01679C0.413301 8.01679 0.270233 7.96408 0.164748 7.87032C0.0592636 7.77655 1.87188e-06 7.64941 0 7.51681C1.87188e-06 7.3842 0.0592636 7.25706 0.164748 7.1633C0.270233 7.06953 0.413301 7.01682 0.562478 7.01682C0.711655 7.01682 0.854722 7.06953 0.960207 7.1633C1.06569 7.25706 1.12495 7.3842 1.12496 7.51681ZM7.87469 1.01708C7.87469 1.14968 7.81543 1.27682 7.70994 1.37059C7.60446 1.46435 7.46139 1.51707 7.31221 1.51707C7.16304 1.51707 7.01997 1.46435 6.91448 1.37059C6.809 1.27682 6.74974 1.14968 6.74973 1.01708C6.74974 0.884476 6.809 0.757332 6.91448 0.663568C7.01997 0.569805 7.16304 0.51709 7.31221 0.51709C7.46139 0.51709 7.60446 0.569805 7.70994 0.663568C7.81543 0.757332 7.87469 0.884476 7.87469 1.01708Z" fill="#2557C3"/>
<path d="M8.99996 27.0161C8.99995 27.1487 8.94069 27.2758 8.83521 27.3696C8.72972 27.4634 8.58666 27.5161 8.43748 27.5161C8.2883 27.5161 8.14523 27.4634 8.03975 27.3696C7.93426 27.2758 7.875 27.1487 7.875 27.0161C7.875 26.8835 7.93426 26.7564 8.03975 26.6626C8.14523 26.5688 8.2883 26.5161 8.43748 26.5161C8.58666 26.5161 8.72972 26.5688 8.83521 26.6626C8.94069 26.7564 8.99995 26.8835 8.99996 27.0161Z" fill="#2557C3"/>
</svg>
